<svg width="32" height="38" viewBox="0 0 32 38" fill="none" xmlns="http://www.w3.org/2000/svg">
<path d="M16.4167 19C14.6037 19 12.8314 18.4623 11.324 17.4551C9.81653 16.4479 8.64161 15.0162 7.94781 13.3412C7.25401 11.6662 7.07248 9.82313 7.42618 8.04497C7.77987 6.26681 8.65291 4.63347 9.93489 3.35148C11.2169 2.0695 12.8502 1.19646 14.6284 0.842765C16.4065 0.489067 18.2496 0.670598 19.9246 1.3644C21.5996 2.0582 23.0313 3.23312 24.0385 4.74057C25.0458 6.24802 25.5834 8.0203 25.5834 9.8333C25.579 12.2631 24.6118 14.5921 22.8937 16.3102C21.1755 18.0284 18.8465 18.9956 16.4167 19ZM16.4167 2.3333C14.9333 2.3333 13.4833 2.77316 12.2499 3.59727C11.0166 4.42139 10.0553 5.59272 9.48761 6.96317C8.91995 8.33362 8.77143 9.84162 9.06082 11.2965C9.35021 12.7513 10.0645 14.0877 11.1134 15.1366C12.1623 16.1855 13.4987 16.8998 14.9535 17.1892C16.4084 17.4786 17.9164 17.3301 19.2868 16.7624C20.6573 16.1947 21.8286 15.2334 22.6527 14.0001C23.4768 12.7667 23.9167 11.3167 23.9167 9.8333C23.9123 7.84553 23.1207 5.94043 21.7151 4.53486C20.3096 3.12929 18.4045 2.3377 16.4167 2.3333Z" fill="white"/>
<path d="M1.41671 32.3333C1.19569 32.3333 0.983732 32.2455 0.827452 32.0892C0.671172 31.9329 0.583374 31.721 0.583374 31.5C0.587785 27.7441 2.08176 24.1433 4.73757 21.4875C7.39338 18.8317 10.9942 17.3377 14.75 17.3333H18.0834C18.3044 17.3333 18.5163 17.4211 18.6726 17.5774C18.8289 17.7337 18.9167 17.9456 18.9167 18.1666C18.9167 18.3876 18.8289 18.5996 18.6726 18.7559C18.5163 18.9122 18.3044 19 18.0834 19H14.75C11.4348 19 8.25541 20.3169 5.91121 22.6611C3.567 25.0053 2.25004 28.1848 2.25004 31.5C2.25004 31.721 2.16224 31.9329 2.00596 32.0892C1.84968 32.2455 1.63772 32.3333 1.41671 32.3333Z" fill="white"/>
<path d="M23.9167 37.3333C23.6957 37.3333 23.4837 37.2455 23.3275 37.0892C23.1712 36.9329 23.0834 36.721 23.0834 36.5V23.1666C23.0834 22.9456 23.1712 22.7337 23.3275 22.5774C23.4837 22.4211 23.6957 22.3333 23.9167 22.3333C24.1377 22.3333 24.3497 22.4211 24.506 22.5774C24.6622 22.7337 24.75 22.9456 24.75 23.1666V36.5C24.75 36.721 24.6622 36.9329 24.506 37.0892C24.3497 37.2455 24.1377 37.3333 23.9167 37.3333Z" fill="white"/>
<path d="M30.5834 30.6666H17.25C17.029 30.6666 16.8171 30.5788 16.6608 30.4226C16.5045 30.2663 16.4167 30.0543 16.4167 29.8333C16.4167 29.6123 16.5045 29.4003 16.6608 29.244C16.8171 29.0878 17.029 29 17.25 29H30.5834C30.8044 29 31.0164 29.0878 31.1726 29.244C31.3289 29.4003 31.4167 29.6123 31.4167 29.8333C31.4167 30.0543 31.3289 30.2663 31.1726 30.4226C31.0164 30.5788 30.8044 30.6666 30.5834 30.6666Z" fill="white"/>
</svg>
