<svg width="80" height="80" viewBox="0 0 80 80" fill="none" xmlns="http://www.w3.org/2000/svg">
<rect width="80" height="80" fill="#95E1D3"/>
<path d="M38.0587 30.644V35H23.4427V30.644H28.5547V19.736C28.2667 20.096 27.7747 20.48 27.0787 20.888C26.4067 21.296 25.6627 21.644 24.8467 21.932C24.0547 22.22 23.3467 22.364 22.7227 22.364V17.864C23.1547 17.864 23.6707 17.732 24.2707 17.468C24.8947 17.18 25.5067 16.844 26.1067 16.46C26.7307 16.076 27.2587 15.704 27.6907 15.344C28.1467 14.96 28.4347 14.66 28.5547 14.444H33.4867V30.644H38.0587ZM48.3597 40.364C46.5117 40.364 44.8437 39.968 43.3557 39.176C41.8677 38.384 40.7397 37.304 39.9717 35.936L42.7437 33.056C43.4157 33.992 44.2557 34.736 45.2637 35.288C46.2717 35.84 47.3157 36.116 48.3957 36.116C49.6917 36.116 50.7477 35.72 51.5637 34.928C52.4037 34.136 52.8237 33.104 52.8237 31.832C52.8237 30.584 52.4277 29.576 51.6357 28.808C50.8437 28.04 49.8597 27.656 48.6837 27.656C47.8917 27.656 47.1477 27.836 46.4517 28.196C45.7797 28.532 45.2397 29.024 44.8317 29.672H40.6197L43.5717 14.444H56.1717V18.836H47.0637L46.0197 24.56C46.3077 24.272 46.7277 24.032 47.2797 23.84C47.8557 23.624 48.5517 23.516 49.3677 23.516C50.9757 23.516 52.4037 23.864 53.6517 24.56C54.9237 25.256 55.9197 26.228 56.6397 27.476C57.3837 28.7 57.7557 30.116 57.7557 31.724C57.7557 33.452 57.3477 34.964 56.5317 36.26C55.7157 37.556 54.5997 38.564 53.1837 39.284C51.7677 40.004 50.1597 40.364 48.3597 40.364ZM23.2452 63.092C23.4732 63.248 23.7852 63.398 24.1812 63.542C24.5892 63.674 25.0692 63.74 25.6212 63.74C26.3772 63.74 26.9472 63.578 27.3312 63.254C27.7272 62.918 27.9912 62.408 28.1232 61.724C28.2672 61.04 28.3392 60.158 28.3392 59.078V52.22H29.9592V58.718C29.9592 59.666 29.9112 60.536 29.8152 61.328C29.7192 62.12 29.5272 62.81 29.2392 63.398C28.9512 63.974 28.5192 64.418 27.9432 64.73C27.3792 65.042 26.6232 65.198 25.6752 65.198C25.0752 65.198 24.5472 65.132 24.0912 65C23.6352 64.868 23.2152 64.67 22.8312 64.406L23.2452 63.092ZM36.7696 52.22H38.1376L43.3576 65H41.6296L40.1176 61.256H34.7536L33.2596 65H31.5316L36.7696 52.22ZM39.7576 59.996L37.4536 54.092L35.0776 59.996H39.7576ZM46.6832 55.208V65H45.0632V52.22H46.4312L54.2432 62.21V52.238H55.8632V65H54.3872L46.6832 55.208Z" fill="white"/>
</svg>
