<svg width="30" height="21" viewBox="0 0 30 21" fill="none" xmlns="http://www.w3.org/2000/svg">
<path d="M29.3333 10.7732C29.3364 10.9179 29.2893 11.0592 29.2 11.1732L22.3733 20.3065C22.3112 20.3903 22.231 20.459 22.1387 20.5075C22.0463 20.5559 21.9442 20.583 21.84 20.5865H8.17335C8.06684 20.585 7.96212 20.5589 7.86732 20.5103C7.77251 20.4618 7.69017 20.392 7.62668 20.3065L0.800013 11.1732C0.715465 11.0569 0.669922 10.9169 0.669922 10.7732C0.669922 10.6294 0.715465 10.4894 0.800013 10.3732L7.62668 1.23985C7.69085 1.15601 7.77365 1.08827 7.86854 1.04198C7.96342 0.995696 8.06778 0.97214 8.17335 0.973177H21.84C21.9433 0.974188 22.0451 0.998728 22.1375 1.04493C22.2299 1.09114 22.3106 1.1578 22.3733 1.23985L29.2 10.3732C29.2874 10.4881 29.3343 10.6288 29.3333 10.7732ZM21.5067 19.2532L27.84 10.7732L21.5067 2.30651H8.50668L2.16001 10.7732L8.50668 19.2532H21.5067Z" fill="#95E1D3"/>
<path d="M21.7733 10.7732C21.7764 10.9179 21.7293 11.0592 21.64 11.1732L18.5867 15.2665C18.5239 15.3486 18.4432 15.4152 18.3508 15.4614C18.2584 15.5076 18.1567 15.5322 18.0533 15.5332H11.9467C11.8434 15.5322 11.7416 15.5076 11.6492 15.4614C11.5568 15.4152 11.4761 15.3486 11.4133 15.2665L8.33335 11.1732C8.24246 11.0597 8.19295 10.9186 8.19295 10.7732C8.19295 10.6278 8.24246 10.4867 8.33335 10.3732L11.3867 6.29318C11.4473 6.20878 11.5275 6.1404 11.6204 6.09394C11.7133 6.04748 11.8161 6.02434 11.92 6.02651H18.0267C18.1305 6.02434 18.2334 6.04748 18.3263 6.09394C18.4192 6.1404 18.4994 6.20878 18.56 6.29318L21.6667 10.3732C21.7447 10.4914 21.7821 10.6318 21.7733 10.7732ZM17.6667 14.1998L20.3333 10.7732L17.6667 7.33318H12.3333L9.66668 10.7732L12.3333 14.1998H17.6667Z" fill="#95E1D3"/>
</svg>
