<svg width="24" height="24" viewBox="0 0 24 24" fill="none" xmlns="http://www.w3.org/2000/svg">
<path d="M12.44 22.9869C10.6258 22.9885 8.83783 22.5541 7.22666 21.7203C7.14874 21.68 7.07952 21.6248 7.02294 21.5577C6.96637 21.4907 6.92355 21.4132 6.89693 21.3296C6.87031 21.246 6.86041 21.1581 6.8678 21.0707C6.87519 20.9833 6.89972 20.8982 6.93999 20.8203C6.98026 20.7423 7.03549 20.6731 7.10251 20.6165C7.16954 20.56 7.24705 20.5171 7.33062 20.4905C7.4142 20.4639 7.50219 20.454 7.58959 20.4614C7.67699 20.4688 7.76208 20.4933 7.83999 20.5336C9.99799 21.6314 12.4804 21.9113 14.8286 21.3216C17.1769 20.7319 19.2325 19.3123 20.6157 17.3251C21.999 15.3379 22.6164 12.9174 22.3541 10.5104C22.0917 8.10345 20.9672 5.87274 19.1883 4.23023C17.4095 2.58773 15.0963 1.64439 12.6761 1.57444C10.2559 1.50449 7.89215 2.31264 6.02137 3.84966C4.15058 5.38667 2.89915 7.54872 2.4982 9.93649C2.09724 12.3243 2.57385 14.7765 3.83999 16.8403C3.92931 16.993 3.95559 17.1745 3.91327 17.3462C3.87095 17.518 3.76336 17.6665 3.61333 17.7603C3.53816 17.8062 3.45462 17.8368 3.36755 17.8503C3.28048 17.8638 3.1916 17.8599 3.10605 17.8388C3.0205 17.8177 2.93998 17.7799 2.86913 17.7275C2.79829 17.6751 2.73854 17.6092 2.69333 17.5336C1.23013 15.1905 0.673098 12.3936 1.12692 9.66874C1.58074 6.94383 3.01417 4.47849 5.15778 2.73609C7.3014 0.99368 10.0076 0.0941891 12.7677 0.206672C15.5279 0.319155 18.1519 1.43587 20.1467 3.34692C21.6871 4.77472 22.8005 6.60251 23.3625 8.6263C23.9246 10.6501 23.9131 12.7903 23.3296 14.8079C22.746 16.8256 21.6132 18.6414 20.0576 20.0527C18.502 21.464 16.5848 22.4152 14.52 22.8003C13.8341 22.9279 13.1377 22.9904 12.44 22.9869Z" fill="#95E1D3"/>
<path d="M2.09333 23.6803C1.83486 23.6754 1.58158 23.6069 1.35589 23.4808C1.13019 23.3548 0.939025 23.1751 0.799301 22.9576C0.659577 22.7401 0.575598 22.4915 0.554789 22.2338C0.533979 21.9762 0.576982 21.7174 0.679993 21.4803L2.70666 16.9203C2.7821 16.7586 2.91801 16.6331 3.08512 16.5708C3.25222 16.5084 3.43712 16.5142 3.59999 16.5869C3.76066 16.6597 3.88595 16.7931 3.94842 16.9581C4.0109 17.123 4.00547 17.306 3.93333 17.4669L1.89333 22.0269C1.86736 22.0615 1.85333 22.1036 1.85333 22.1469C1.85333 22.1902 1.86736 22.2323 1.89333 22.2669C1.92245 22.3003 1.9607 22.3243 2.00335 22.3362C2.046 22.348 2.09118 22.3471 2.13333 22.3336L7.26666 20.5069C7.34881 20.4753 7.4365 20.4606 7.52446 20.4638C7.61242 20.4669 7.69885 20.4878 7.77855 20.5251C7.85824 20.5625 7.92957 20.6156 7.98825 20.6812C8.04692 20.7468 8.09173 20.8236 8.11999 20.9069C8.18004 21.0731 8.17163 21.2564 8.09662 21.4164C8.02162 21.5764 7.88615 21.7001 7.71999 21.7603L2.62666 23.5869C2.45605 23.6503 2.27531 23.6819 2.09333 23.6803Z" fill="#95E1D3"/>
</svg>
