<svg width="22" height="35" viewBox="0 0 22 35" fill="none" xmlns="http://www.w3.org/2000/svg">
<path d="M10.6849 16.2651C9.55659 16.2651 8.45359 15.9305 7.51541 15.3037C6.57723 14.6768 5.846 13.7858 5.41421 12.7433C4.98241 11.7009 4.86943 10.5538 5.08956 9.44715C5.30969 8.34048 5.85303 7.32395 6.65089 6.52609C7.44875 5.72823 8.46529 5.18489 9.57195 4.96476C10.6786 4.74463 11.8257 4.85761 12.8681 5.2894C13.9106 5.7212 14.8016 6.45243 15.4285 7.39061C16.0553 8.32879 16.3899 9.43179 16.3899 10.5601C16.3899 12.0732 15.7889 13.5243 14.719 14.5942C13.6491 15.6641 12.198 16.2651 10.6849 16.2651ZM10.6849 6.60514C9.90271 6.60514 9.13805 6.83709 8.48766 7.27167C7.83726 7.70626 7.33034 8.32394 7.03099 9.04662C6.73165 9.7693 6.65333 10.5645 6.80593 11.3317C6.95854 12.0989 7.33521 12.8036 7.88833 13.3567C8.44145 13.9099 9.14616 14.2865 9.91335 14.4391C10.6805 14.5917 11.4758 14.5134 12.1985 14.2141C12.9211 13.9147 13.5388 13.4078 13.9734 12.7574C14.408 12.107 14.6399 11.3424 14.6399 10.5601C14.6399 9.5112 14.2232 8.50524 13.4815 7.76353C12.7398 7.02182 11.7339 6.60514 10.6849 6.60514Z" fill="#F38281"/>
<path d="M20.5549 13.3951H20.4149C20.2 13.3411 20.0129 13.209 19.89 13.0247C19.7671 12.8403 19.7172 12.6168 19.7499 12.3976V12.1176C19.7557 11.9952 19.7557 11.8726 19.7499 11.7501C19.7672 11.5697 19.7672 11.3881 19.7499 11.2076C19.7499 10.7526 19.7499 10.5251 19.7499 10.5251C19.7499 8.172 18.8152 5.91525 17.1512 4.25133C15.4873 2.58742 13.2306 1.65264 10.8774 1.65264C8.5243 1.65264 6.26755 2.58742 4.60363 4.25133C2.93972 5.91525 2.00494 8.172 2.00494 10.5251C2.00494 10.5251 2.00494 10.7526 2.00494 11.0851C2.0537 11.3176 2.13625 11.5416 2.24994 11.7501V12.4676C2.26717 12.5825 2.26161 12.6997 2.23356 12.8125C2.20551 12.9252 2.15553 13.0314 2.08646 13.1248C2.0174 13.2182 1.93061 13.2972 1.83104 13.3571C1.73148 13.417 1.62109 13.4567 1.50619 13.4739C1.39128 13.4911 1.2741 13.4856 1.16135 13.4575C1.04859 13.4295 0.942466 13.3795 0.849027 13.3104C0.755588 13.2413 0.676667 13.1546 0.61677 13.055C0.556873 12.9554 0.517174 12.845 0.499938 12.7301V12.1001C0.469536 11.8151 0.469536 11.5277 0.499938 11.2426V10.7001C0.499938 7.88287 1.61909 5.181 3.6112 3.1889C5.6033 1.19679 8.30517 0.0776367 11.1224 0.0776367C13.9397 0.0776367 16.6416 1.19679 18.6337 3.1889C20.6258 5.181 21.7449 7.88287 21.7449 10.7001C21.7449 10.7001 21.7449 10.9976 21.7449 11.3476C21.7418 11.6355 21.7125 11.9225 21.6574 12.2051L21.4999 12.6601C21.4694 12.8817 21.3535 13.0825 21.1769 13.2198C21.0004 13.3572 20.7772 13.4201 20.5549 13.3951Z" fill="#F38281"/>
<path d="M10.9999 34.0626C10.8852 34.064 10.7714 34.0414 10.6659 33.9962C10.5604 33.951 10.4656 33.8842 10.3874 33.8001C1.11244 24.5251 0.499936 11.1551 0.377436 10.5951C0.372747 10.4802 0.390764 10.3655 0.430457 10.2575C0.470149 10.1496 0.530737 10.0505 0.608756 9.96597C0.686775 9.88145 0.780693 9.81314 0.885137 9.76495C0.98958 9.71677 1.1025 9.68964 1.21744 9.68514C1.33237 9.68045 1.44709 9.69847 1.55505 9.73816C1.66301 9.77785 1.76208 9.83844 1.8466 9.91646C1.93112 9.99448 1.99943 10.0884 2.04762 10.1928C2.09581 10.2973 2.12293 10.4102 2.12744 10.5251C2.12744 10.6476 2.84494 23.7901 11.6124 32.5751C11.6961 32.6537 11.7629 32.7486 11.8085 32.8539C11.8541 32.9593 11.8776 33.0728 11.8776 33.1876C11.8776 33.3024 11.8541 33.416 11.8085 33.5214C11.7629 33.6267 11.6961 33.7216 11.6124 33.8001C11.5343 33.8842 11.4394 33.951 11.334 33.9962C11.2285 34.0414 11.1147 34.064 10.9999 34.0626Z" fill="#F38281"/>
<path d="M10.9999 34.0626C10.8852 34.064 10.7714 34.0414 10.6659 33.9962C10.5604 33.951 10.4656 33.8842 10.3874 33.8001C10.3037 33.7216 10.237 33.6267 10.1914 33.5214C10.1458 33.416 10.1223 33.3024 10.1223 33.1876C10.1223 33.0728 10.1458 32.9593 10.1914 32.8539C10.237 32.7486 10.3037 32.6537 10.3874 32.5751C19.1374 23.8251 19.8549 10.6476 19.8724 10.5251C19.8663 10.4071 19.8862 10.2891 19.9307 10.1796C19.9753 10.0701 20.0435 9.97178 20.1303 9.8916C20.2172 9.81141 20.3207 9.75134 20.4334 9.71566C20.5461 9.67998 20.6652 9.66956 20.7824 9.68514C21.013 9.69867 21.2293 9.80104 21.386 9.97074C21.5426 10.1404 21.6274 10.3642 21.6224 10.5951C21.6224 11.1551 20.8874 24.5951 11.6124 33.8001C11.5343 33.8842 11.4394 33.951 11.334 33.9962C11.2285 34.0414 11.1147 34.064 10.9999 34.0626Z" fill="#F38281"/>
</svg>
