<svg width="22" height="16" viewBox="0 0 22 16" fill="none" xmlns="http://www.w3.org/2000/svg">
<path d="M15.39 11.3101H11.2C11.0674 11.3101 10.9402 11.2574 10.8465 11.1636C10.7527 11.0698 10.7 10.9427 10.7 10.8101C10.7 10.6775 10.7527 10.5503 10.8465 10.4565C10.9402 10.3627 11.0674 10.3101 11.2 10.3101H15.39C15.5226 10.3101 15.6498 10.3627 15.7436 10.4565C15.8373 10.5503 15.89 10.6775 15.89 10.8101C15.89 10.9427 15.8373 11.0698 15.7436 11.1636C15.6498 11.2574 15.5226 11.3101 15.39 11.3101Z" fill="white"/>
<path d="M18.21 11.0001C18.1508 11.0141 18.0892 11.0141 18.03 11.0001C17.9684 10.9778 17.9118 10.9435 17.8637 10.8991C17.8156 10.8546 17.7769 10.801 17.7498 10.7413C17.7228 10.6817 17.708 10.6172 17.7063 10.5517C17.7046 10.4862 17.7161 10.421 17.74 10.3601L20.12 4.00006C20.1671 3.87726 20.2607 3.77797 20.3805 3.72369C20.5003 3.66941 20.6366 3.66451 20.76 3.71006C20.8838 3.75936 20.9839 3.85427 21.0397 3.97521C21.0955 4.09616 21.1028 4.23391 21.06 4.36006L18.68 10.6901C18.6397 10.7814 18.5739 10.8592 18.4906 10.9142C18.4073 10.9691 18.3098 10.999 18.21 11.0001Z" fill="white"/>
<path d="M8.00001 11.1901C7.89568 11.1908 7.79383 11.1582 7.7093 11.0971C7.62476 11.0359 7.56195 10.9494 7.53001 10.8501L4.39001 1.31006H1.39001C1.25741 1.31006 1.13023 1.25738 1.03646 1.16361C0.942693 1.06984 0.890015 0.942667 0.890015 0.810059C0.892575 0.678252 0.946075 0.552557 1.03929 0.459338C1.13251 0.366119 1.25821 0.312619 1.39001 0.310059H4.75001C4.85362 0.312268 4.9541 0.345988 5.03806 0.406728C5.12203 0.467468 5.18549 0.552346 5.22001 0.650059L8.51002 10.5301C8.53193 10.5917 8.54127 10.6572 8.53748 10.7225C8.53369 10.7878 8.51685 10.8518 8.48796 10.9105C8.45906 10.9692 8.4187 11.0215 8.36924 11.0644C8.31979 11.1073 8.26225 11.1398 8.20001 11.1601C8.13649 11.1851 8.06809 11.1954 8.00001 11.1901Z" fill="white"/>
<path d="M9.54002 15.6901C8.94667 15.6901 8.36665 15.5141 7.8733 15.1845C7.37996 14.8548 6.99544 14.3863 6.76838 13.8381C6.54131 13.2899 6.4819 12.6867 6.59766 12.1048C6.71341 11.5228 6.99914 10.9883 7.41869 10.5687C7.83825 10.1492 8.3728 9.86346 8.95474 9.7477C9.53669 9.63195 10.1399 9.69136 10.6881 9.91842C11.2362 10.1455 11.7048 10.53 12.0344 11.0233C12.3641 11.5167 12.54 12.0967 12.54 12.6901C12.54 13.4857 12.2239 14.2488 11.6613 14.8114C11.0987 15.374 10.3357 15.6901 9.54002 15.6901ZM9.54002 10.6901C9.14445 10.6901 8.75777 10.8074 8.42887 11.0271C8.09998 11.2469 7.84363 11.5592 7.69226 11.9247C7.54088 12.2901 7.50127 12.6923 7.57844 13.0802C7.65561 13.4682 7.8461 13.8246 8.1258 14.1043C8.40551 14.384 8.76187 14.5745 9.14983 14.6516C9.5378 14.7288 9.93993 14.6892 10.3054 14.5378C10.6708 14.3864 10.9832 14.1301 11.203 13.8012C11.4227 13.4723 11.54 13.0856 11.54 12.6901C11.54 12.1596 11.3293 11.6509 10.9542 11.2758C10.5792 10.9008 10.0704 10.6901 9.54002 10.6901Z" fill="white"/>
<path d="M17.05 15.6901C16.4567 15.6901 15.8767 15.5141 15.3833 15.1845C14.89 14.8548 14.5054 14.3863 14.2784 13.8381C14.0513 13.2899 13.9919 12.6867 14.1077 12.1048C14.2234 11.5228 14.5091 10.9883 14.9287 10.5687C15.3483 10.1492 15.8828 9.86346 16.4647 9.7477C17.0467 9.63195 17.6499 9.69136 18.1981 9.91842C18.7462 10.1455 19.2148 10.53 19.5444 11.0233C19.8741 11.5167 20.05 12.0967 20.05 12.6901C20.05 13.4857 19.7339 14.2488 19.1713 14.8114C18.6087 15.374 17.8457 15.6901 17.05 15.6901ZM17.05 10.6901C16.6544 10.6901 16.2678 10.8074 15.9389 11.0271C15.61 11.2469 15.3536 11.5592 15.2023 11.9247C15.0509 12.2901 15.0113 12.6923 15.0884 13.0802C15.1656 13.4682 15.3561 13.8246 15.6358 14.1043C15.9155 14.384 16.2719 14.5745 16.6598 14.6516C17.0478 14.7288 17.4499 14.6892 17.8154 14.5378C18.1808 14.3864 18.4932 14.1301 18.713 13.8012C18.9327 13.4723 19.05 13.0856 19.05 12.6901C19.05 12.1596 18.8393 11.6509 18.4642 11.2758C18.0892 10.9008 17.5804 10.6901 17.05 10.6901Z" fill="white"/>
</svg>
