<svg width="64" height="56" viewBox="0 0 64 56" fill="none" xmlns="http://www.w3.org/2000/svg">
<path d="M27.1584 44.1875C26.863 44.1933 26.5726 44.111 26.3242 43.9511C26.0757 43.7912 25.8805 43.561 25.7635 43.2897C25.6464 43.0185 25.6127 42.7185 25.6668 42.4281C25.7209 42.1377 25.8602 41.8699 26.067 41.6589C26.2738 41.448 26.5388 41.3034 26.8281 41.2436C27.1174 41.1838 27.418 41.2115 27.6915 41.3232C27.965 41.4348 28.1991 41.6254 28.3638 41.8706C28.5286 42.1159 28.6166 42.4046 28.6167 42.7C28.6168 43.0895 28.4641 43.4635 28.1914 43.7416C27.9187 44.0198 27.5478 44.1799 27.1584 44.1875Z" fill="#95E1D3"/>
<path d="M37.8625 44.1875C38.6679 44.1875 39.3209 43.5346 39.3209 42.7292C39.3209 41.9238 38.6679 41.2708 37.8625 41.2708C37.0571 41.2708 36.4042 41.9238 36.4042 42.7292C36.4042 43.5346 37.0571 44.1875 37.8625 44.1875Z" fill="#95E1D3"/>
<path d="M38.6209 55.65H25.3792C21.9446 55.65 18.6508 54.2856 16.2222 51.857C13.7936 49.4284 12.4292 46.1346 12.4292 42.7C12.4292 39.2655 13.7936 35.9716 16.2222 33.543C18.6508 31.1144 21.9446 29.75 25.3792 29.75H38.6209C42.0554 29.75 45.3493 31.1144 47.7779 33.543C50.2065 35.9716 51.5709 39.2655 51.5709 42.7C51.5709 46.1346 50.2065 49.4284 47.7779 51.857C45.3493 54.2856 42.0554 55.65 38.6209 55.65ZM25.3792 32.6667C24.0616 32.6667 22.7569 32.9262 21.5396 33.4304C20.3223 33.9346 19.2162 34.6737 18.2846 35.6054C17.3529 36.537 16.6138 37.6431 16.1096 38.8604C15.6054 40.0777 15.3459 41.3824 15.3459 42.7C15.3459 44.0176 15.6054 45.3223 16.1096 46.5396C16.6138 47.7569 17.3529 48.863 18.2846 49.7946C19.2162 50.7263 20.3223 51.4654 21.5396 51.9696C22.7569 52.4738 24.0616 52.7333 25.3792 52.7333H38.6209C41.2819 52.7333 43.8339 51.6763 45.7155 49.7946C47.5971 47.913 48.6542 45.361 48.6542 42.7C48.6542 40.039 47.5971 37.487 45.7155 35.6054C43.8339 33.7237 41.2819 32.6667 38.6209 32.6667H25.3792Z" fill="#95E1D3"/>
<path d="M55.3334 36.925H47.5167C47.1299 36.925 46.759 36.7714 46.4855 36.4979C46.212 36.2244 46.0584 35.8534 46.0584 35.4667C46.0584 35.0799 46.212 34.709 46.4855 34.4355C46.759 34.162 47.1299 34.0083 47.5167 34.0083H55.3334C56.7389 34.0007 58.0846 33.4389 59.0785 32.4451C60.0723 31.4512 60.634 30.1055 60.6417 28.7C60.634 21.9621 57.9559 15.5019 53.1942 10.7347C48.4325 5.96756 41.9754 3.2821 35.2375 3.26667H29.0834C22.3404 3.27439 15.8758 5.95644 11.1078 10.7244C6.3398 15.4924 3.65774 21.957 3.65002 28.7C3.65768 30.1055 4.21941 31.4512 5.21326 32.4451C6.20711 33.4389 7.55286 34.0007 8.95836 34.0083H16.4834C16.8701 34.0083 17.2411 34.162 17.5146 34.4355C17.788 34.709 17.9417 35.0799 17.9417 35.4667C17.9417 35.8534 17.788 36.2244 17.5146 36.4979C17.2411 36.7714 16.8701 36.925 16.4834 36.925H8.81252C6.63112 36.925 4.53906 36.0584 2.99657 34.516C1.45408 32.9735 0.587524 30.8814 0.587524 28.7C0.591331 24.9658 1.33206 21.2691 2.76725 17.8217C4.20245 14.3743 6.30388 11.2441 8.95112 8.61041C11.5984 5.97672 14.7393 3.89137 18.194 2.47389C21.6487 1.0564 25.3492 0.334649 29.0834 0.350002H35.2375C42.7439 0.365415 49.9385 3.35416 55.2463 8.66201C60.5542 13.9699 63.5429 21.1644 63.5584 28.6708C63.5584 30.8549 62.6927 32.95 61.1511 34.4971C59.6094 36.0442 57.5174 36.9173 55.3334 36.925Z" fill="#95E1D3"/>
<path d="M6.24586 28.9625C4.65308 28.9377 3.07945 28.6111 1.60836 28C1.43014 27.9293 1.26762 27.8241 1.1301 27.6905C0.992571 27.5569 0.882738 27.3975 0.806884 27.2214C0.731031 27.0453 0.690645 26.856 0.688038 26.6643C0.685431 26.4726 0.720653 26.2823 0.791691 26.1042C0.855945 25.9245 0.956248 25.7599 1.08644 25.6204C1.21663 25.4809 1.37397 25.3695 1.54878 25.293C1.72359 25.2165 1.91219 25.1766 2.103 25.1756C2.29381 25.1747 2.4828 25.2128 2.65836 25.2875C3.80384 25.726 5.01932 25.9533 6.24586 25.9583C8.25946 25.9442 10.2162 25.2891 11.8326 24.0882C13.4489 22.8872 14.6408 21.2027 15.2355 19.2789C15.8302 17.3551 15.7968 15.2919 15.1401 13.3883C14.4835 11.4847 13.2377 9.83969 11.5834 8.69167C11.3145 8.45694 11.1411 8.13177 11.0959 7.77775C11.0507 7.42373 11.137 7.06543 11.3382 6.7707C11.5395 6.47598 11.8419 6.2653 12.1881 6.17855C12.5342 6.0918 12.9002 6.13501 13.2167 6.3C15.4138 7.78658 17.0761 9.9388 17.9592 12.4403C18.8423 14.9418 18.8995 17.6606 18.1226 20.1971C17.3457 22.7336 15.7755 24.9539 13.6429 26.5317C11.5103 28.1095 8.92782 28.9615 6.27502 28.9625H6.24586Z" fill="#95E1D3"/>
<path d="M61.925 28.9042C57.3673 28.5594 53.107 26.5096 49.9933 23.1635C46.8796 19.8174 45.1413 15.4207 45.125 10.85C45.1189 8.64568 45.5244 6.4596 46.3209 4.40417C46.3916 4.22595 46.4967 4.06343 46.6303 3.92591C46.7639 3.78838 46.9233 3.67855 47.0994 3.6027C47.2755 3.52684 47.4648 3.48646 47.6565 3.48385C47.8483 3.48124 48.0386 3.51646 48.2167 3.5875C48.3964 3.65176 48.561 3.75206 48.7005 3.88225C48.84 4.01244 48.9514 4.16978 49.0279 4.34459C49.1044 4.5194 49.1443 4.708 49.1452 4.89881C49.1462 5.08962 49.1081 5.27861 49.0334 5.45417C48.22 7.65296 47.9265 10.0101 48.1757 12.3412C48.4249 14.6723 49.2101 16.9142 50.4698 18.8914C51.7296 20.8685 53.4297 22.5274 55.4372 23.7382C57.4447 24.9491 59.7052 25.679 62.0417 25.8708C62.4285 25.8708 62.7994 26.0245 63.0729 26.298C63.3464 26.5715 63.5 26.9424 63.5 27.3292C63.5 27.7159 63.3464 28.0869 63.0729 28.3604C62.7994 28.6339 62.4285 28.7875 62.0417 28.7875L61.925 28.9042Z" fill="#95E1D3"/>
</svg>
