<svg width="38" height="38" viewBox="0 0 38 38" fill="none" xmlns="http://www.w3.org/2000/svg">
<path d="M19 37.0425C15.4316 37.0425 11.9432 35.9844 8.97615 34.0018C6.00908 32.0193 3.69653 29.2014 2.33093 25.9046C0.965337 22.6078 0.608035 18.98 1.30421 15.4801C2.00038 11.9802 3.71876 8.76534 6.24205 6.24205C8.76534 3.71876 11.9802 2.00038 15.4801 1.30421C18.98 0.608035 22.6078 0.965337 25.9046 2.33093C29.2014 3.69653 32.0193 6.00908 34.0018 8.97615C35.9844 11.9432 37.0425 15.4316 37.0425 19C37.0379 23.7838 35.1355 28.3703 31.7529 31.7529C28.3703 35.1355 23.7838 37.0379 19 37.0425ZM19 2.70753C15.7777 2.70753 12.6277 3.66307 9.9484 5.45331C7.26911 7.24355 5.18086 9.78809 3.94772 12.7652C2.71458 15.7422 2.39193 19.0181 3.02058 22.1785C3.64923 25.339 5.20094 28.242 7.47949 30.5206C9.75804 32.7991 12.6611 34.3508 15.8215 34.9795C18.982 35.6081 22.2578 35.2855 25.2349 34.0523C28.212 32.8192 30.7565 30.7309 32.5467 28.0517C34.337 25.3724 35.2925 22.2224 35.2925 19C35.2833 14.6818 33.5638 10.5431 30.5103 7.4897C27.4569 4.43627 23.3182 2.71677 19 2.70753Z" fill="#95E1D3"/>
<path d="M12.1925 26C11.2407 26 10.3103 25.7178 9.51885 25.189C8.72743 24.6602 8.1106 23.9086 7.74636 23.0292C7.38211 22.1498 7.28681 21.1822 7.4725 20.2487C7.65819 19.3151 8.11654 18.4576 8.78958 17.7846C9.46262 17.1115 10.3201 16.6532 11.2537 16.4675C12.1872 16.2818 13.1548 16.3771 14.0342 16.7414C14.9136 17.1056 15.6652 17.7224 16.194 18.5138C16.7228 19.3053 17.005 20.2357 17.005 21.1875C17.005 21.8195 16.8805 22.4453 16.6387 23.0292C16.3968 23.6131 16.0424 24.1436 15.5955 24.5905C15.1486 25.0374 14.6181 25.3918 14.0342 25.6337C13.4503 25.8755 12.8245 26 12.1925 26ZM12.1925 18.125C11.5831 18.1253 10.9877 18.3073 10.4824 18.6479C9.97701 18.9884 9.58474 19.472 9.35574 20.0367C9.12674 20.6014 9.07142 21.2216 9.19686 21.8179C9.32229 22.4142 9.62278 22.9596 10.0599 23.3842C10.497 23.8088 11.0508 24.0934 11.6505 24.2015C12.2502 24.3096 12.8686 24.2363 13.4264 23.991C13.9842 23.7458 14.4562 23.3396 14.782 22.8246C15.1077 22.3096 15.2724 21.7092 15.255 21.1C15.2504 20.2892 14.9263 19.5129 14.353 18.9396C13.7796 18.3663 13.0033 18.0421 12.1925 18.0375V18.125Z" fill="#95E1D3"/>
<path d="M25.8075 26C24.8557 26 23.9253 25.7178 23.1338 25.189C22.3424 24.6602 21.7256 23.9086 21.3614 23.0292C20.9971 22.1498 20.9018 21.1822 21.0875 20.2487C21.2732 19.3151 21.7315 18.4576 22.4046 17.7846C23.0776 17.1115 23.9351 16.6532 24.8687 16.4675C25.8022 16.2818 26.7698 16.3771 27.6492 16.7414C28.5286 17.1056 29.2802 17.7224 29.809 18.5138C30.3378 19.3053 30.62 20.2357 30.62 21.1875C30.62 22.4639 30.113 23.688 29.2105 24.5905C28.308 25.493 27.0839 26 25.8075 26ZM25.8075 18.125C25.2018 18.125 24.6097 18.3046 24.1061 18.6412C23.6025 18.9777 23.2099 19.456 22.9781 20.0156C22.7464 20.5752 22.6857 21.1909 22.8039 21.785C22.922 22.3791 23.2137 22.9247 23.642 23.353C24.0703 23.7813 24.616 24.073 25.2101 24.1912C25.8041 24.3094 26.4199 24.2487 26.9795 24.0169C27.5391 23.7851 28.0174 23.3926 28.3539 22.889C28.6904 22.3853 28.87 21.7932 28.87 21.1875C28.8817 20.7781 28.8112 20.3704 28.6625 19.9887C28.5139 19.607 28.2901 19.2589 28.0046 18.9652C27.719 18.6715 27.3774 18.4381 27.0001 18.2787C26.6227 18.1194 26.2172 18.0374 25.8075 18.0375V18.125Z" fill="#95E1D3"/>
<path d="M2.23503 16.13C2.03331 16.1301 1.83778 16.0604 1.68152 15.9329C1.52526 15.8053 1.41787 15.6277 1.37753 15.43C1.33574 15.2031 1.38348 14.9688 1.51073 14.7763C1.63798 14.5837 1.83485 14.448 2.06003 14.3975C2.25253 14.3625 21.1875 10.25 26.28 3.25003C26.3477 3.15676 26.4331 3.07776 26.5313 3.01758C26.6296 2.95739 26.7387 2.9172 26.8525 2.89932C26.9664 2.88143 27.0826 2.8862 27.1946 2.91335C27.3065 2.9405 27.412 2.9895 27.505 3.05753C27.6896 3.19696 27.8128 3.40261 27.8488 3.63114C27.8847 3.85966 27.8304 4.0932 27.6975 4.28253C22.2025 11.825 3.25003 15.9375 2.42753 16.1125L2.23503 16.13Z" fill="#95E1D3"/>
<path d="M31.25 13.225C26.9146 13.0804 22.6431 12.1371 18.65 10.4425C18.4365 10.3497 18.2686 10.1759 18.1833 9.95926C18.098 9.74266 18.1022 9.50103 18.195 9.28753C18.2879 9.07403 18.4617 8.90615 18.6783 8.82082C18.8949 8.73549 19.1365 8.7397 19.35 8.83253C19.4375 8.83253 27.645 12.49 34.54 11.195C34.7695 11.1538 35.0059 11.2039 35.1989 11.3347C35.3918 11.4655 35.5259 11.6666 35.5725 11.895C35.6134 12.1223 35.5628 12.3566 35.4317 12.5468C35.3005 12.7369 35.0995 12.8675 34.8725 12.91C33.678 13.1318 32.4649 13.2372 31.25 13.225Z" fill="#95E1D3"/>
<path d="M21.87 21.975H16.13C15.898 21.975 15.6754 21.8828 15.5113 21.7187C15.3472 21.5546 15.255 21.3321 15.255 21.1C15.2595 20.8694 15.3531 20.6494 15.5163 20.4863C15.6794 20.3231 15.8994 20.2295 16.13 20.225H21.87C22.1007 20.2295 22.3207 20.3231 22.4838 20.4863C22.6469 20.6494 22.7405 20.8694 22.745 21.1C22.745 21.3321 22.6528 21.5546 22.4887 21.7187C22.3247 21.8828 22.1021 21.975 21.87 21.975Z" fill="#95E1D3"/>
<path d="M8.25503 21.975H1.97253C1.74046 21.975 1.5179 21.8828 1.35381 21.7187C1.18971 21.5546 1.09753 21.3321 1.09753 21.1C1.10201 20.8694 1.19563 20.6494 1.35877 20.4863C1.5219 20.3231 1.74187 20.2295 1.97253 20.225H8.25503C8.48709 20.225 8.70965 20.3172 8.87375 20.4813C9.03784 20.6454 9.13003 20.868 9.13003 21.1C9.13003 21.3321 9.03784 21.5546 8.87375 21.7187C8.70965 21.8828 8.48709 21.975 8.25503 21.975Z" fill="#95E1D3"/>
<path d="M36.045 21.975H29.745C29.513 21.975 29.2904 21.8828 29.1263 21.7187C28.9622 21.5546 28.87 21.3321 28.87 21.1C28.87 20.868 28.9622 20.6454 29.1263 20.4813C29.2904 20.3172 29.513 20.225 29.745 20.225H36.045C36.2771 20.225 36.4997 20.3172 36.6637 20.4813C36.8278 20.6454 36.92 20.868 36.92 21.1C36.92 21.3321 36.8278 21.5546 36.6637 21.7187C36.4997 21.8828 36.2771 21.975 36.045 21.975Z" fill="#95E1D3"/>
</svg>
