<svg width="36" height="36" viewBox="0 0 36 36" fill="none" xmlns="http://www.w3.org/2000/svg">
<path d="M17.9999 23.3724C16.9374 23.3724 15.8986 23.0574 15.0151 22.467C14.1316 21.8767 13.443 21.0376 13.0364 20.0559C12.6298 19.0742 12.5234 17.994 12.7307 16.9518C12.938 15.9097 13.4497 14.9524 14.201 14.201C14.9524 13.4497 15.9097 12.938 16.9518 12.7307C17.994 12.5234 19.0742 12.6298 20.0559 13.0364C21.0376 13.443 21.8767 14.1316 22.467 15.0151C23.0574 15.8986 23.3724 16.9374 23.3724 17.9999C23.3678 19.4234 22.8003 20.7872 21.7938 21.7938C20.7872 22.8003 19.4234 23.3678 17.9999 23.3724ZM17.9999 14.3774C17.2835 14.3774 16.5831 14.5899 15.9874 14.9879C15.3917 15.386 14.9274 15.9517 14.6532 16.6137C14.379 17.2756 14.3073 18.004 14.447 18.7067C14.5868 19.4094 14.9318 20.0548 15.4385 20.5614C15.9451 21.0681 16.5905 21.4131 17.2932 21.5528C17.9959 21.6926 18.7243 21.6209 19.3862 21.3467C20.0481 21.0725 20.6139 20.6082 21.0119 20.0125C21.41 19.4168 21.6224 18.7164 21.6224 17.9999C21.6224 17.0392 21.2408 16.1178 20.5614 15.4385C19.8821 14.7591 18.9607 14.3774 17.9999 14.3774Z" fill="#95E1D3"/>
<path d="M17.9999 29.3749C15.7502 29.3749 13.5509 28.7078 11.6803 27.4579C9.80973 26.208 8.35176 24.4315 7.49081 22.353C6.62987 20.2745 6.40461 17.9873 6.84351 15.7808C7.28242 13.5743 8.36578 11.5474 9.9566 9.9566C11.5474 8.36578 13.5743 7.28242 15.7808 6.84351C17.9873 6.40461 20.2745 6.62987 22.353 7.49081C24.4315 8.35176 26.208 9.80973 27.4579 11.6803C28.7078 13.5509 29.3749 15.7502 29.3749 17.9999C29.3749 21.0168 28.1765 23.9101 26.0433 26.0433C23.9101 28.1765 21.0168 29.3749 17.9999 29.3749ZM17.9999 8.37494C16.0963 8.37494 14.2354 8.93944 12.6526 9.99705C11.0698 11.0547 9.8361 12.5579 9.1076 14.3166C8.37911 16.0754 8.1885 18.0106 8.55989 19.8777C8.93127 21.7448 9.84796 23.4598 11.194 24.8058C12.5401 26.1519 14.2551 27.0686 16.1222 27.44C17.9893 27.8114 19.9245 27.6208 21.6833 26.8923C23.442 26.1638 24.9452 24.9301 26.0028 23.3473C27.0604 21.7645 27.6249 19.9036 27.6249 17.9999C27.6203 15.4487 26.6048 13.0032 24.8007 11.1992C22.9967 9.39512 20.5512 8.37957 17.9999 8.37494Z" fill="#95E1D3"/>
<path d="M17.9999 35.3774C14.563 35.3774 11.2032 34.3583 8.34552 32.4488C5.48781 30.5393 3.26049 27.8253 1.94523 24.65C0.629966 21.4747 0.285834 17.9807 0.956348 14.6098C1.62686 11.2389 3.28191 8.14248 5.7122 5.7122C8.14248 3.28191 11.2389 1.62686 14.6098 0.956348C17.9807 0.285834 21.4747 0.629966 24.65 1.94523C27.8253 3.26049 30.5393 5.48781 32.4488 8.34552C34.3583 11.2032 35.3774 14.563 35.3774 17.9999C35.3728 22.6073 33.5405 27.0247 30.2826 30.2826C27.0247 33.5405 22.6073 35.3728 17.9999 35.3774ZM17.9999 2.37244C14.9091 2.37244 11.8877 3.28898 9.31777 5.00615C6.74784 6.72332 4.74483 9.16401 3.56202 12.0196C2.37921 14.8751 2.06973 18.0173 2.67272 21.0487C3.27571 24.0802 4.76409 26.8647 6.94963 29.0503C9.13518 31.2358 11.9197 32.7242 14.9512 33.3272C17.9826 33.9302 21.1248 33.6207 23.9803 32.4379C26.8359 31.2551 29.2766 29.252 30.9937 26.6821C32.7109 24.1122 33.6274 21.0908 33.6274 17.9999C33.6274 15.9477 33.2232 13.9156 32.4379 12.0196C31.6525 10.1235 30.5014 8.40078 29.0503 6.94963C27.5991 5.49848 25.8763 4.34737 23.9803 3.56202C22.0843 2.77666 20.0522 2.37244 17.9999 2.37244Z" fill="#95E1D3"/>
</svg>
