<svg width="38" height="34" viewBox="0 0 38 34" fill="none" xmlns="http://www.w3.org/2000/svg">
<path d="M19 23.7201C16.4427 23.7201 13.99 22.7042 12.1817 20.8959C10.3734 19.0876 9.3575 16.635 9.3575 14.0776V2.38765C9.33083 2.02647 9.33083 1.66382 9.3575 1.30265C9.37047 1.1897 9.40577 1.08046 9.46135 0.981281C9.51693 0.882102 9.59168 0.794965 9.68125 0.724941C9.77081 0.654916 9.87341 0.603402 9.98307 0.573394C10.0927 0.543386 10.2073 0.535484 10.32 0.550148C10.5494 0.576539 10.759 0.692516 10.9032 0.872805C11.0475 1.05309 11.1146 1.28308 11.09 1.51265C11.0721 1.80404 11.0721 2.09626 11.09 2.38765V14.0776C11.2233 16.0755 12.1109 17.948 13.5731 19.3159C15.0353 20.6838 16.9627 21.4449 18.965 21.4449C20.9673 21.4449 22.8947 20.6838 24.3569 19.3159C25.8191 17.948 26.7067 16.0755 26.84 14.0776V2.38765C26.8579 2.09626 26.8579 1.80404 26.84 1.51265C26.8122 1.28058 26.8776 1.04696 27.022 0.863176C27.1664 0.67939 27.3779 0.560496 27.61 0.532648C27.8421 0.5048 28.0757 0.570281 28.2595 0.714684C28.4433 0.859087 28.5622 1.07058 28.59 1.30265C28.6167 1.66382 28.6167 2.02647 28.59 2.38765V14.0776C28.59 16.6259 27.5813 19.0706 25.7844 20.8774C23.9874 22.6843 21.5482 23.7063 19 23.7201Z" fill="white"/>
<path d="M28.7125 13.0101C28.5508 13.0064 28.3933 12.958 28.2575 12.8701L27.3125 12.3101C27.1129 12.1895 26.9695 11.9945 26.9137 11.768C26.8579 11.5416 26.8943 11.3022 27.015 11.1026C27.1357 10.9031 27.3307 10.7596 27.5571 10.7038C27.7836 10.648 28.0229 10.6845 28.2225 10.8051L28.94 11.2426C34.3475 11.0676 35.38 4.66265 35.5725 2.28265H2.41C2.6025 4.68015 3.5825 11.0326 9.06 11.2426L9.7775 10.8051C9.87632 10.7454 9.98594 10.7057 10.1001 10.6883C10.2143 10.6709 10.3307 10.6762 10.4429 10.7038C10.555 10.7314 10.6606 10.7809 10.7536 10.8493C10.8466 10.9177 10.9252 11.0038 10.985 11.1026C11.0448 11.2015 11.0845 11.3111 11.1018 11.4253C11.1192 11.5394 11.114 11.6559 11.0863 11.768C11.0587 11.8801 11.0093 11.9857 10.9408 12.0787C10.8724 12.1718 10.7863 12.2504 10.6875 12.3101L9.7425 12.8701C9.60669 12.958 9.44919 13.0064 9.2875 13.0101C2.445 13.0101 0.625 5.41515 0.625 1.40765C0.625 1.17558 0.717187 0.953024 0.881282 0.788929C1.04538 0.624835 1.26794 0.532648 1.5 0.532648H36.5C36.7321 0.532648 36.9546 0.624835 37.1187 0.788929C37.2828 0.953024 37.375 1.17558 37.375 1.40765C37.375 5.41515 35.555 13.0101 28.7125 13.0101Z" fill="white"/>
<path d="M19 33.4676C18.7679 33.4676 18.5454 33.3755 18.3813 33.2114C18.2172 33.0473 18.125 32.8247 18.125 32.5926V22.8451C18.125 22.6131 18.2172 22.3905 18.3813 22.2264C18.5454 22.0623 18.7679 21.9701 19 21.9701C19.2321 21.9701 19.4546 22.0623 19.6187 22.2264C19.7828 22.3905 19.875 22.6131 19.875 22.8451V32.5926C19.875 32.8247 19.7828 33.0473 19.6187 33.2114C19.4546 33.3755 19.2321 33.4676 19 33.4676Z" fill="white"/>
<path d="M28.7475 33.4676H11.2475C11.0154 33.4676 10.7929 33.3755 10.6288 33.2114C10.4647 33.0473 10.3725 32.8247 10.3725 32.5926C10.3725 32.3606 10.4647 32.138 10.6288 31.9739C10.7929 31.8098 11.0154 31.7176 11.2475 31.7176H28.7475C28.9796 31.7176 29.2021 31.8098 29.3662 31.9739C29.5303 32.138 29.6225 32.3606 29.6225 32.5926C29.6225 32.8247 29.5303 33.0473 29.3662 33.2114C29.2021 33.3755 28.9796 33.4676 28.7475 33.4676Z" fill="white"/>
</svg>
